<svg xmlns="http://www.w3.org/2000/svg" width="512" height="512" viewBox="0 0 512 512">
        
            <defs>
                <clipPath id="clip-shape">
                    <rect width="100%" height="100%" rx="60" ry="60" />
                </clipPath>
            </defs>
        
		<defs>
			
		</defs>
        <g clip-path="url(#clip-shape)">
            
            <defs>
                <linearGradient id="bg-grad" x1="0%" y1="0%" x2="100%" y2="0%">
                    <stop offset="0%" stop-color="#30cfd0" /><stop offset="100%" stop-color="#330867" />
                </linearGradient>
            </defs>
            <rect width="100%" height="100%" fill="url(#bg-grad)" />
        
			
            <g transform="translate(256, 256) scale(13.333333333333334) rotate(0) translate(-12, -12)" opacity="1" color="#ffffff">
					<title xmlns="">bxl:prisma-orm</title>
<path xmlns="http://www.w3.org/2000/svg" fill="currentColor" d="M13.23 2.58c-.33-.72-1.34-.78-1.75-.1L4 14.67c-.2.32-.2.73 0 1.05l3.68 5.81c.24.38.7.55 1.13.42l10.63-3.19c.58-.17.87-.82.62-1.37zm4.29 14.8l-7.34 2.19a.37.37 0 0 1-.47-.43l2.63-13.1c.07-.36.56-.41.71-.07l4.71 10.9c.09.21-.02.44-.24.51"/>
				</g>
        </g>
    </svg>
